<svg width="41" height="36" viewBox="0 0 41 36" fill="none" xmlns="http://www.w3.org/2000/svg">
<path d="M7.83071 22.8871L1.15472 28.6923V30.8462C1.15472 33.0553 2.94559 34.8462 5.15472 34.8462H30.5613C32.7705 34.8462 34.5613 33.0553 34.5613 30.8462V20.7802L23.7177 26.8798C21.8028 27.9569 19.4091 27.6578 17.8181 26.1426L14.5599 23.0395C12.6919 21.2605 9.77724 21.1945 7.83071 22.8871Z" fill="#FE544F" stroke="#00206F" stroke-width="2"/>
<circle cx="20.9349" cy="16.8242" r="2.95604" fill="#FE544F" stroke="#00206F" stroke-width="2"/>
<path d="M6.42944 8.47253L6.723 5.97729C7.04618 3.23028 9.53823 1.26756 12.2845 1.59711L35.3275 4.36227C38.0629 4.69052 40.0173 7.16961 39.6981 9.90606L37.5588 28.2424C37.3614 29.9345 35.8081 31.131 34.1217 30.8901V30.8901" stroke="#00206F" stroke-width="2"/>
<rect x="1.2756" y="8.59326" width="33.1648" height="26.1319" rx="4" stroke="#00206F" stroke-width="2"/>
</svg>
