<?xml version="1.0" encoding="UTF-8"?> <svg xmlns="http://www.w3.org/2000/svg" width="282" height="64" viewBox="0 0 282 64" fill="none"><path d="M98.8315 24.0883C98.8315 25.5156 98.5039 26.826 97.8487 28.0194C97.1935 29.1894 96.1873 30.1371 94.8301 30.8624C93.473 31.5878 91.7882 31.9505 89.7758 31.9505H86.0553V40.7956H80.0533V16.1558H89.7758C91.7414 16.1558 93.4028 16.4951 94.7599 17.1737C96.1171 17.8523 97.135 18.7883 97.8136 19.9816C98.4922 21.175 98.8315 22.5439 98.8315 24.0883ZM89.3195 27.177C90.4661 27.177 91.3202 26.9079 91.8818 26.3697C92.4434 25.8315 92.7242 25.071 92.7242 24.0883C92.7242 23.1055 92.4434 22.345 91.8818 21.8068C91.3202 21.2686 90.4661 20.9995 89.3195 20.9995H86.0553V27.177H89.3195Z" fill="#101828"></path><path d="M108.66 24.4744C109.362 23.398 110.24 22.5556 111.293 21.9472C112.346 21.3154 113.516 20.9995 114.803 20.9995V27.3525H113.153C111.655 27.3525 110.532 27.6801 109.783 28.3353C109.035 28.9671 108.66 30.0903 108.66 31.7048V40.7956H102.658V21.2101H108.66V24.4744Z" fill="#101828"></path><path d="M127.289 41.0764C125.37 41.0764 123.638 40.6669 122.094 39.8479C120.573 39.0289 119.368 37.8589 118.479 36.338C117.613 34.817 117.18 33.0386 117.18 31.0028C117.18 28.9905 117.625 27.2238 118.514 25.7028C119.403 24.1585 120.62 22.9768 122.164 22.1578C123.708 21.3388 125.44 20.9293 127.359 20.9293C129.278 20.9293 131.009 21.3388 132.553 22.1578C134.098 22.9768 135.315 24.1585 136.204 25.7028C137.093 27.2238 137.538 28.9905 137.538 31.0028C137.538 33.0152 137.081 34.7936 136.169 36.338C135.28 37.8589 134.051 39.0289 132.483 39.8479C130.939 40.6669 129.207 41.0764 127.289 41.0764ZM127.289 35.8817C128.435 35.8817 129.406 35.4605 130.202 34.6181C131.021 33.7757 131.43 32.5706 131.43 31.0028C131.43 29.4351 131.033 28.23 130.237 27.3876C129.465 26.5452 128.505 26.124 127.359 26.124C126.189 26.124 125.218 26.5452 124.446 27.3876C123.673 28.2066 123.287 29.4117 123.287 31.0028C123.287 32.5706 123.662 33.7757 124.41 34.6181C125.183 35.4605 126.142 35.8817 127.289 35.8817Z" fill="#101828"></path><path d="M165.92 23.9479C165.476 23.1289 164.832 22.5088 163.99 22.0876C163.171 21.643 162.2 21.4207 161.076 21.4207C159.134 21.4207 157.578 22.0642 156.408 23.3512C155.238 24.6148 154.653 26.3112 154.653 28.4406C154.653 30.7103 155.262 32.4887 156.478 33.7757C157.719 35.0393 159.415 35.6711 161.568 35.6711C163.042 35.6711 164.282 35.2967 165.288 34.5479C166.318 33.7991 167.067 32.7227 167.535 31.3187H159.918V26.8962H172.975V32.477C172.531 33.9746 171.77 35.3669 170.694 36.6538C169.641 37.9408 168.295 38.9821 166.657 39.7777C165.019 40.5733 163.171 40.9711 161.112 40.9711C158.678 40.9711 156.502 40.4446 154.583 39.3916C152.688 38.3152 151.202 36.8293 150.125 34.934C149.072 33.0386 148.546 30.8741 148.546 28.4406C148.546 26.007 149.072 23.8426 150.125 21.9472C151.202 20.0284 152.688 18.5426 154.583 17.4896C156.478 16.4132 158.643 15.875 161.076 15.875C164.025 15.875 166.505 16.5887 168.517 18.0161C170.553 19.4434 171.899 21.4207 172.554 23.9479H165.92Z" fill="#101828"></path><path d="M175.808 30.9677C175.808 28.9554 176.183 27.1887 176.931 25.6677C177.704 24.1468 178.745 22.9768 180.055 22.1578C181.366 21.3388 182.828 20.9293 184.443 20.9293C185.823 20.9293 187.028 21.2101 188.058 21.7717C189.111 22.3333 189.918 23.0704 190.48 23.983V21.2101H196.482V40.7956H190.48V38.0227C189.895 38.9353 189.076 39.6724 188.023 40.234C186.993 40.7956 185.788 41.0764 184.408 41.0764C182.816 41.0764 181.366 40.6669 180.055 39.8479C178.745 39.0055 177.704 37.8238 176.931 36.3029C176.183 34.7585 175.808 32.9801 175.808 30.9677ZM190.48 31.0028C190.48 29.5053 190.059 28.3236 189.216 27.4578C188.397 26.592 187.391 26.1591 186.198 26.1591C185.004 26.1591 183.986 26.592 183.144 27.4578C182.325 28.3002 181.916 29.4702 181.916 30.9677C181.916 32.4653 182.325 33.6587 183.144 34.5479C183.986 35.4137 185.004 35.8466 186.198 35.8466C187.391 35.8466 188.397 35.4137 189.216 34.5479C190.059 33.6821 190.48 32.5004 190.48 31.0028Z" fill="#101828"></path><path d="M207.528 14.822V40.7956H201.526V14.822H207.528Z" fill="#101828"></path><path d="M218.582 14.822V40.7956H212.58V14.822H218.582Z" fill="#101828"></path><path d="M242.095 30.687C242.095 31.2485 242.06 31.8335 241.99 32.4419H228.407C228.5 33.6587 228.886 34.5947 229.565 35.2499C230.267 35.8817 231.121 36.1976 232.127 36.1976C233.625 36.1976 234.666 35.5658 235.251 34.3022H241.639C241.312 35.5892 240.715 36.7474 239.849 37.777C239.007 38.8066 237.942 39.6139 236.655 40.1989C235.368 40.7839 233.929 41.0764 232.338 41.0764C230.419 41.0764 228.711 40.6669 227.213 39.8479C225.716 39.0289 224.546 37.8589 223.703 36.338C222.861 34.817 222.44 33.0386 222.44 31.0028C222.44 28.9671 222.849 27.1887 223.668 25.6677C224.511 24.1468 225.681 22.9768 227.178 22.1578C228.676 21.3388 230.396 20.9293 232.338 20.9293C234.233 20.9293 235.918 21.3271 237.392 22.1227C238.866 22.9183 240.013 24.0532 240.832 25.5273C241.674 27.0015 242.095 28.7214 242.095 30.687ZM235.953 29.1075C235.953 28.0779 235.602 27.2589 234.9 26.6505C234.198 26.0421 233.321 25.7379 232.268 25.7379C231.261 25.7379 230.407 26.0304 229.705 26.6154C229.027 27.2004 228.606 28.0311 228.442 29.1075H235.953Z" fill="#101828"></path><path d="M251.966 24.4744C252.668 23.398 253.545 22.5556 254.598 21.9472C255.651 21.3154 256.821 20.9995 258.108 20.9995V27.3525H256.458C254.961 27.3525 253.838 27.6801 253.089 28.3353C252.34 28.9671 251.966 30.0903 251.966 31.7048V40.7956H245.964V21.2101H251.966V24.4744Z" fill="#101828"></path><path d="M281.686 21.2101L269.401 50.0969H262.943L267.435 40.1287L259.468 21.2101H266.172L270.7 33.4598L275.192 21.2101H281.686Z" fill="#101828"></path><rect width="63.5055" height="63.5055" rx="20" fill="white"></rect><path d="M20.0499 36.0084L14.5383 40.8817V42.4384C14.5383 44.6475 16.3292 46.4384 18.5383 46.4384H40.2045C42.4137 46.4384 44.2045 44.6475 44.2045 42.4384V33.7373L34.9751 39.0162C33.0431 40.1212 30.6132 39.8162 29.0143 38.2678L26.8402 36.1624C24.9642 34.3457 22.0062 34.2786 20.0499 36.0084Z" fill="#FE544F" stroke="#00206F" stroke-width="2"></path><circle cx="32.1499" cy="30.1651" r="2.57219" fill="#FE544F" stroke="#00206F" stroke-width="2"></circle><path d="M19.0517 22.6238L19.26 20.8536C19.5831 18.1066 22.0752 16.1439 24.8214 16.4735L44.6657 18.8548C47.401 19.183 49.3555 21.6621 49.0362 24.3985L47.1606 40.4754C46.9824 42.0033 45.5797 43.0837 44.057 42.8662V42.8662" stroke="#00206F" stroke-width="2"></path><rect x="14.495" y="22.83" width="29.7528" height="23.4022" rx="4" stroke="#00206F" stroke-width="2"></rect></svg> 